HIERARCHY
ROOT Root
{
  OFFSET 0.0 0.0 0.0
  CHANNELS 6 Xposition Yposition Zposition Zrotation Yrotation Xrotation
  JOINT Hips
  {
    OFFSET 0.0 100.0 0.0
    CHANNELS 6 Xposition Yposition Zposition Zrotation Yrotation Xrotation
    JOINT Spine1
    {
      OFFSET -0.013727 5.003763 -0.053727
      CHANNELS 3 Zrotation Yrotation Xrotation
      JOINT Spine2
      {
        OFFSET -0.0 7.125301 -0.029825
        CHANNELS 3 Zrotation Yrotation Xrotation
        JOINT Chest
        {
          OFFSET -1e-06 7.550063 -0.815971
          CHANNELS 3 Zrotation Yrotation Xrotation
          JOINT Neck1
          {
            OFFSET -0.181677 26.311295 -0.553348
            CHANNELS 3 Zrotation Yrotation Xrotation
            JOINT Neck2
            {
              OFFSET -3e-06 7.709397 2.302585
              CHANNELS 3 Zrotation Yrotation Xrotation
              JOINT Head
              {
                OFFSET -5e-06 6.128916 1.953709
                CHANNELS 3 Zrotation Yrotation Xrotation
                JOINT HeadEnd
                {
                  OFFSET 0.003598 16.065403 -1.835379
                  CHANNELS 3 Zrotation Yrotation Xrotation
                }
                JOINT Jaw
                {
                  OFFSET 0.002637 0.475592 3.094941
                  CHANNELS 3 Zrotation Yrotation Xrotation
                }
                JOINT LeftEye
                {
                  OFFSET 3.206381 5.380205 7.586883
                  CHANNELS 3 Zrotation Yrotation Xrotation
                }
                JOINT RightEye
                {
                  OFFSET -3.22244 5.361869 7.558234
                  CHANNELS 3 Zrotation Yrotation Xrotation
                }
              }
            }
          }
          JOINT LeftShoulder
          {
            OFFSET 1.621652 23.237164 5.113413
            CHANNELS 3 Zrotation Yrotation Xrotation
            JOINT LeftArm
            {
              OFFSET 14.919846 2e-06 -5.502326
              CHANNELS 3 Zrotation Yrotation Xrotation
              JOINT LeftForeArm
              {
                OFFSET 28.739307 0.0 -0.002588
                CHANNELS 3 Zrotation Yrotation Xrotation
                JOINT LeftHand
                {
                  OFFSET 27.093981 -1e-06 0.002609
                  CHANNELS 3 Zrotation Yrotation Xrotation
                  JOINT LeftHandThumb1
                  {
                    OFFSET 2.276482 -1.392045 3.191413
                    CHANNELS 3 Zrotation Yrotation Xrotation
                    JOINT LeftHandThumb2
                    {
                      OFFSET 4.012836 -1.828127 1.641654
                      CHANNELS 3 Zrotation Yrotation Xrotation
                      JOINT LeftHandThumb3
                      {
                        OFFSET 2.798515 0.0 -3e-06
                        CHANNELS 3 Zrotation Yrotation Xrotation
                        JOINT LeftHandThumbEnd
                        {
                          OFFSET 3.180793 -4e-06 4e-06
                          CHANNELS 3 Zrotation Yrotation Xrotation
                        }
                      }
                    }
                  }
                  JOINT LeftHandIndex1
                  {
                    OFFSET 3.247555 -0.531998 2.296169
                    CHANNELS 3 Zrotation Yrotation Xrotation
                    JOINT LeftHandIndex2
                    {
                      OFFSET 6.364578 0.01206 0.1786
                      CHANNELS 3 Zrotation Yrotation Xrotation
                      JOINT LeftHandIndex3
                      {
                        OFFSET 3.662364 0.0 0.0
                        CHANNELS 3 Zrotation Yrotation Xrotation
                        JOINT LeftHandIndex4
                        {
                          OFFSET 2.329242 4e-06 4e-06
                          CHANNELS 3 Zrotation Yrotation Xrotation
                          JOINT LeftHandIndexEnd
                          {
                            OFFSET 2.759615 -0.180537 -0.113024
                            CHANNELS 3 Zrotation Yrotation Xrotation
                          }
                        }
                      }
                    }
                  }
                  JOINT LeftHandMiddle1
                  {
                    OFFSET 3.163495 0.240981 1.000332
                    CHANNELS 3 Zrotation Yrotation Xrotation
                    JOINT LeftHandMiddle2
                    {
                      OFFSET 6.19078 -0.259278 -1.002548
                      CHANNELS 3 Zrotation Yrotation Xrotation
                      JOINT LeftHandMiddle3
                      {
                        OFFSET 4.35652 -4e-06 -1e-06
                        CHANNELS 3 Zrotation Yrotation Xrotation
                        JOINT LeftHandMiddle4
                        {
                          OFFSET 2.996877 -8e-06 0.0
                          CHANNELS 3 Zrotation Yrotation Xrotation
                          JOINT LeftHandMiddleEnd
                          {
                            OFFSET 2.304287 -0.294569 -0.031741
                            CHANNELS 3 Zrotation Yrotation Xrotation
                          }
                        }
                      }
                    }
                  }
                  JOINT LeftHandRing1
                  {
                    OFFSET 2.882643 -0.053652 -0.322543
                    CHANNELS 3 Zrotation Yrotation Xrotation
                    JOINT LeftHandRing2
                    {
                      OFFSET 5.854541 -0.486202 -1.373841
                      CHANNELS 3 Zrotation Yrotation Xrotation
                      JOINT LeftHandRing3
                      {
                        OFFSET 4.350578 0.0 3e-06
                        CHANNELS 3 Zrotation Yrotation Xrotation
                        JOINT LeftHandRing4
                        {
                          OFFSET 2.651321 7e-06 2e-06
                          CHANNELS 3 Zrotation Yrotation Xrotation
                          JOINT LeftHandRingEnd
                          {
                            OFFSET 1.936105 0.077687 -7.1e-05
                            CHANNELS 3 Zrotation Yrotation Xrotation
                          }
                        }
                      }
                    }
                  }
                  JOINT LeftHandPinky1
                  {
                    OFFSET 2.8655 -0.310005 -1.600378
                    CHANNELS 3 Zrotation Yrotation Xrotation
                    JOINT LeftHandPinky2
                    {
                      OFFSET 5.087849 -1.331141 -1.77123
                      CHANNELS 3 Zrotation Yrotation Xrotation
                      JOINT LeftHandPinky3
                      {
                        OFFSET 3.070974 4e-06 0.0
                        CHANNELS 3 Zrotation Yrotation Xrotation
                        JOINT LeftHandPinky4
                        {
                          OFFSET 1.549672 0.0 1e-06
                          CHANNELS 3 Zrotation Yrotation Xrotation
                          JOINT LeftHandPinkyEnd
                          {
                            OFFSET 1.944893 -0.157802 0.057219
                            CHANNELS 3 Zrotation Yrotation Xrotation
                          }
                        }
                      }
                    }
                  }
                }
              }
            }
          }
          JOINT RightShoulder
          {
            OFFSET -1.380118 23.180309 5.214158
            CHANNELS 3 Zrotation Yrotation Xrotation
            JOINT RightArm
            {
              OFFSET -15.037196 1.2e-05 -5.545604
              CHANNELS 3 Zrotation Yrotation Xrotation
              JOINT RightForeArm
              {
                OFFSET -28.736639 2e-06 -0.002597
                CHANNELS 3 Zrotation Yrotation Xrotation
                JOINT RightHand
                {
                  OFFSET -27.133619 -0.0 0.002613
                  CHANNELS 3 Zrotation Yrotation Xrotation
                  JOINT RightHandThumb1
                  {
                    OFFSET -2.274032 -1.383988 3.163127
                    CHANNELS 3 Zrotation Yrotation Xrotation
                    JOINT RightHandThumb2
                    {
                      OFFSET -4.011429 -1.827466 1.640914
                      CHANNELS 3 Zrotation Yrotation Xrotation
                      JOINT RightHandThumb3
                      {
                        OFFSET -2.794935 -4e-06 -3e-06
                        CHANNELS 3 Zrotation Yrotation Xrotation
                        JOINT RightHandThumbEnd
                        {
                          OFFSET -3.183852 4e-06 1e-06
                          CHANNELS 3 Zrotation Yrotation Xrotation
                        }
                      }
                    }
                  }
                  JOINT RightHandIndex1
                  {
                    OFFSET -3.253266 -0.520057 2.282866
                    CHANNELS 3 Zrotation Yrotation Xrotation
                    JOINT RightHandIndex2
                    {
                      OFFSET -6.341917 0.012471 0.178266
                      CHANNELS 3 Zrotation Yrotation Xrotation
                      JOINT RightHandIndex3
                      {
                        OFFSET -3.654871 -8e-06 -0.0
                        CHANNELS 3 Zrotation Yrotation Xrotation
                        JOINT RightHandIndex4
                        {
                          OFFSET -2.327586 0.0 1e-06
                          CHANNELS 3 Zrotation Yrotation Xrotation
                          JOINT RightHandIndexEnd
                          {
                            OFFSET -2.76179 -0.180656 -0.113078
                            CHANNELS 3 Zrotation Yrotation Xrotation
                          }
                        }
                      }
                    }
                  }
                  JOINT RightHandMiddle1
                  {
                    OFFSET -3.168106 0.246593 1.00103
                    CHANNELS 3 Zrotation Yrotation Xrotation
                    JOINT RightHandMiddle2
                    {
                      OFFSET -6.180828 -0.258836 -1.000895
                      CHANNELS 3 Zrotation Yrotation Xrotation
                      JOINT RightHandMiddle3
                      {
                        OFFSET -4.348901 0.0 -0.0
                        CHANNELS 3 Zrotation Yrotation Xrotation
                        JOINT RightHandMiddle4
                        {
                          OFFSET -3.00024 -4e-06 -2e-06
                          CHANNELS 3 Zrotation Yrotation Xrotation
                          JOINT RightHandMiddleEnd
                          {
                            OFFSET -2.30252 -0.29437 -0.031706
                            CHANNELS 3 Zrotation Yrotation Xrotation
                          }
                        }
                      }
                    }
                  }
                  JOINT RightHandRing1
                  {
                    OFFSET -2.88569 -0.067952 -0.308858
                    CHANNELS 3 Zrotation Yrotation Xrotation
                    JOINT RightHandRing2
                    {
                      OFFSET -5.854198 -0.48613 -1.373731
                      CHANNELS 3 Zrotation Yrotation Xrotation
                      JOINT RightHandRing3
                      {
                        OFFSET -4.33881 -4e-06 -0.0
                        CHANNELS 3 Zrotation Yrotation Xrotation
                        JOINT RightHandRing4
                        {
                          OFFSET -2.654903 -4e-06 4e-06
                          CHANNELS 3 Zrotation Yrotation Xrotation
                          JOINT RightHandRingEnd
                          {
                            OFFSET -1.933568 0.077527 -5.2e-05
                            CHANNELS 3 Zrotation Yrotation Xrotation
                          }
                        }
                      }
                    }
                  }
                  JOINT RightHandPinky1
                  {
                    OFFSET -2.866425 -0.342796 -1.584145
                    CHANNELS 3 Zrotation Yrotation Xrotation
                    JOINT RightHandPinky2
                    {
                      OFFSET -5.091371 -1.332055 -1.772385
                      CHANNELS 3 Zrotation Yrotation Xrotation
                      JOINT RightHandPinky3
                      {
                        OFFSET -3.062664 -4e-06 1e-06
                        CHANNELS 3 Zrotation Yrotation Xrotation
                        JOINT RightHandPinky4
                        {
                          OFFSET -1.546529 4e-06 -2e-06
                          CHANNELS 3 Zrotation Yrotation Xrotation
                          JOINT RightHandPinkyEnd
                          {
                            OFFSET -1.945119 -0.157718 0.057211
                            CHANNELS 3 Zrotation Yrotation Xrotation
                          }
                        }
                      }
                    }
                  }
                }
              }
            }
          }
        }
      }
    }
    JOINT LeftLeg
    {
      OFFSET 10.043214 -8.434526 2.595655
      CHANNELS 3 Zrotation Yrotation Xrotation
      JOINT LeftShin
      {
        OFFSET -1e-06 -43.221752 -0.802913
        CHANNELS 3 Zrotation Yrotation Xrotation
        JOINT LeftFoot
        {
          OFFSET 1e-06 -42.155094 -3.481523
          CHANNELS 3 Zrotation Yrotation Xrotation
          JOINT LeftToeBase
          {
            OFFSET 0.0 -5.059472 13.231529
            CHANNELS 3 Zrotation Yrotation Xrotation
            JOINT LeftToeEnd
            {
              OFFSET -0.009607 -1.647619 6.513017
              CHANNELS 3 Zrotation Yrotation Xrotation
            }
          }
        }
      }
    }
    JOINT RightLeg
    {
      OFFSET -10.047278 -8.29526 2.620317
      CHANNELS 3 Zrotation Yrotation Xrotation
      JOINT RightShin
      {
        OFFSET 1e-06 -43.362206 -0.805556
        CHANNELS 3 Zrotation Yrotation Xrotation
        JOINT RightFoot
        {
          OFFSET 2e-06 -42.117393 -3.478398
          CHANNELS 3 Zrotation Yrotation Xrotation
          JOINT RightToeBase
          {
            OFFSET -0.0 -5.079609 13.284196
            CHANNELS 3 Zrotation Yrotation Xrotation
            JOINT RightToeEnd
            {
              OFFSET 0.009532 -1.634378 6.460591
              CHANNELS 3 Zrotation Yrotation Xrotation
            }
          }
        }
      }
    }
  }
}
MOTION
Frames: 5
Frame Time: 0.03333333333333333
0.0 0.0 0.0 0.0 -0.0 0.0 -103.54097 90.217995 -423.033417 -11.656198 27.818645 11.647422 -0.94494 2.308411 8.506466 0.626302 4.2628 -0.400758 -2.283203 8.313253 22.502464 -5.590449 -1.485358 -7.902455 3.166791 14.1582 -3.147182 -1.314385 16.147919 -30.089128 7.7e-05 -2.3e-05 6e-06 0.093422 -0.126052 -0.101809 0.747094 -4.032621 -11.289259 -0.571442 3.788153 -11.304461 -6.900647 1.013218 13.809011 -43.223831 14.343917 -18.034952 151.930298 -83.121376 -151.870453 23.723352 -10.979328 -26.895748 -5.882111 9.861286 0.702587 -10.936872 -0.360576 7.156207 1e-06 8.774827 -1e-06 -14.969903 17.603979 3.67242 -1.844034 2.498505 -2.50728 -10.1636 4.678947 4.621109 -20.976027 -4e-06 -0.0 -21.22629 2.451695 -3.594003 0.0 -7e-06 -0.0 -1.36268 2.240798 -0.746325 -21.334923 0.584911 3.008322 -13.821215 -3e-06 2e-06 -23.887178 -0.249083 -0.839484 -53.561672 0.269749 -2.882829 -0.294025 1.679688 0.833256 -14.218215 0.093214 1.300581 -34.212063 -0.287567 0.967169 -20.03322 0.964535 1.212843 -0.0 2e-06 -0.0 -3.440389 0.788234 0.501657 -15.928191 -3.167311 2.999707 -6.338829 1e-06 1e-06 -18.123451 3.64818 -4.905674 -4e-06 2e-06 -3e-06 -2.798155 16.2948 14.503009 48.0849 7.757791 3.519831 -0.209609 48.239239 1.131191 8.410404 8.176272 -33.446068 2.243542 -5.255037 -3.180161 14.282892 -0.826595 6.952504 -3e-06 -12.690609 2e-06 16.444771 -17.547243 5.44937 1.665666 -1.955922 -2.8783 4.727799 -4.170588 4.993926 11.020528 3e-06 -1e-06 12.109055 -3.735716 -2.866785 -2e-06 0.0 -0.0 1.291985 -1.92855 -1.498091 14.800129 0.567468 3.865611 14.242573 -1.341737 -6.66066 19.631969 0.143928 -0.648246 60.718014 -3.339442 1.517904 0.353029 -1.511151 -0.031941 20.222792 3.684311 2.316631 18.787273 5e-06 -1e-06 10.751632 -0.479869 1.397907 -1e-06 -1e-06 0.0 3.273807 0.305947 -0.580111 21.486813 11.830379 2.266135 8.162929 1e-06 2e-06 18.399084 -3.798988 -4.940574 1e-06 0.0 -1e-06 -15.301707 24.930803 -29.503252 1.316098 3.878871 57.604744 8.52821 8.233348 5.479177 1.395643 -0.956258 -9.077405 -2e-06 -1e-06 1e-06 2.435216 1.955323 -63.163857 -0.365193 0.015969 74.089798 5.411641 -12.050356 5.821 -1.889161 2.291209 0.647794 0.0 -1e-06 -3e-06
0.0 0.0 0.0 0.0 -0.0 0.0 -93.412712 91.890244 -423.046112 -10.933554 30.508163 8.954072 -0.453168 2.330419 9.492337 1.13252 3.346158 -0.307446 -1.761201 7.840188 23.523781 -5.960487 -1.52528 -6.492441 3.428505 14.211961 -3.025525 -1.462337 16.030766 -28.952055 7.6e-05 -2.2e-05 6e-06 0.110039 -0.241458 -0.120878 0.732916 -4.129564 -11.330485 -0.519451 3.655918 -11.330363 -6.927276 -0.403611 14.206255 -42.488117 11.248155 -16.881414 168.242798 -82.383537 -168.292725 24.379408 -10.465098 -24.946379 -5.882106 9.861286 0.70259 -10.936872 -0.360574 7.156208 -0.0 8.774825 -1e-06 -14.912687 17.43429 3.403052 -1.844033 2.498504 -2.507278 -10.163597 4.678945 4.621112 -20.976021 -2e-06 4e-06 -21.226284 2.451699 -3.594 -0.0 -6e-06 -0.0 -1.362681 2.240798 -0.746323 -21.334911 0.58491 3.008326 -13.821215 0.0 3e-06 -23.887171 -0.249076 -0.839482 -52.888126 0.694445 -3.641104 -0.294024 1.679687 0.833256 -14.218208 0.093214 1.300584 -34.212048 -0.287558 0.967174 -20.033215 0.96454 1.212844 0.0 0.0 -1e-06 -3.440388 0.788234 0.501656 -15.928185 -3.16731 2.99971 -6.338827 2e-06 2e-06 -18.123444 3.648186 -4.905668 -4e-06 -0.0 -2e-06 -2.896427 16.502428 15.437278 47.763966 8.897029 4.967168 -0.001246 49.442081 1.017479 7.254428 6.955031 -31.63131 2.243543 -5.255038 -3.180158 14.282894 -0.826596 6.952503 -1e-06 -12.690607 2e-06 16.688841 -17.27634 5.391074 1.665667 -1.955922 -2.878302 4.727799 -4.170588 4.993924 11.020527 2e-06 -2e-06 12.109055 -3.735717 -2.866786 1e-06 -0.0 0.0 1.291986 -1.92855 -1.498089 14.800129 0.567468 3.865606 14.242576 -1.341737 -6.660661 19.631969 0.143925 -0.648247 60.880203 -2.834437 1.746808 0.353029 -1.511151 -0.031941 20.222792 3.684309 2.316628 18.787275 4e-06 -3e-06 10.751632 -0.479869 1.397905 -1e-06 1e-06 0.0 3.273807 0.305947 -0.58011 21.486816 11.830376 2.266132 8.162928 0.0 -2e-06 18.399082 -3.798985 -4.940577 2e-06 1e-06 -1e-06 -15.829848 22.499584 -21.833849 1.175027 4.451305 54.124313 2.673575 6.287611 16.414518 1.117915 -0.953967 -8.926322 -1e-06 1e-06 2e-06 12.589583 1.151387 -61.365185 -0.815135 -0.746751 58.982002 16.461237 -3.573176 15.045869 -1.827735 2.204368 0.597685 -1e-06 -0.0 -1e-06
0.0 0.0 0.0 0.0 -0.0 0.0 -83.453468 92.207886 -422.836304 -8.262603 33.431194 8.097067 -0.701761 2.05617 9.651251 1.136687 2.864811 -0.480482 -1.939829 7.447485 24.253428 -6.482792 -1.4921 -5.243541 3.610876 13.928426 -3.183475 -1.107041 14.92332 -28.189392 7.7e-05 -2.1e-05 6e-06 0.103497 -0.324786 -0.137093 0.691113 -4.157827 -11.18329 -0.487084 3.517179 -11.172202 -7.073534 -1.803722 14.645593 -42.504314 8.048958 -15.059869 176.972198 -81.834511 -176.931274 25.31938 -10.701214 -24.054302 -5.882106 9.861286 0.702589 -10.936869 -0.360575 7.156209 1e-06 8.774823 -3e-06 -14.74581 17.564274 3.32585 -1.844033 2.498507 -2.507277 -10.163599 4.678946 4.621109 -20.976021 1e-06 3e-06 -21.226286 2.451701 -3.594002 0.0 -7e-06 0.0 -1.362683 2.240798 -0.746322 -21.334909 0.584913 3.008325 -13.821212 2e-06 2e-06 -23.887165 -0.249076 -0.839485 -52.349453 0.80815 -3.548673 -0.294026 1.679688 0.833256 -14.218207 0.093218 1.300583 -34.21204 -0.287556 0.967171 -20.033211 0.964541 1.212844 -1e-06 2e-06 -1e-06 -3.440387 0.788233 0.501656 -15.928185 -3.167307 2.999711 -6.338825 0.0 1e-06 -18.123444 3.648189 -4.905672 -4e-06 2e-06 -2e-06 -3.447657 16.372593 16.075262 47.409821 9.467856 6.093579 0.267105 51.207851 1.335908 5.755644 6.588218 -30.069351 2.243542 -5.255039 -3.180159 14.282893 -0.826597 6.952505 -1e-06 -12.69061 2e-06 16.514961 -17.074064 5.399359 1.665667 -1.955922 -2.8783 4.727799 -4.17059 4.993925 11.020528 2e-06 -2e-06 12.109056 -3.735718 -2.866786 0.0 -0.0 0.0 1.291986 -1.92855 -1.498089 14.800129 0.567467 3.865607 14.242576 -1.341738 -6.660661 19.631969 0.143926 -0.648246 61.051399 -1.954905 1.574908 0.353029 -1.511151 -0.031941 20.222792 3.684309 2.31663 18.787273 3e-06 -2e-06 10.751629 -0.479869 1.397905 -2e-06 0.0 0.0 3.273807 0.305947 -0.580111 21.486814 11.830379 2.266131 8.162929 -0.0 0.0 18.399086 -3.79899 -4.940578 2e-06 -1e-06 -1e-06 -17.049322 19.625814 -19.691906 1.250696 4.010369 58.748287 -7.552128 3.034916 24.060583 0.644169 -1.230441 -2.576434 -1e-06 0.0 2e-06 17.562206 -1.094839 -57.019535 -0.949253 -1.454775 45.631863 25.292448 1.733399 25.309406 -1.55944 1.807166 -0.800352 0.0 0.0 -1e-06
0.0 0.0 0.0 0.0 -0.0 0.0 -74.581535 91.693565 -422.478424 -5.819013 37.279552 7.28052 -0.624286 1.792867 9.902955 1.020934 2.806081 -0.698766 -2.326857 7.196828 24.156502 -6.596899 -1.663384 -3.575182 3.265224 13.28094 -3.482738 -0.507218 13.056419 -28.288246 7.7e-05 -2.2e-05 6e-06 0.088845 -0.223548 -0.121028 0.6472 -4.027414 -11.006237 -0.472306 3.590835 -11.004218 -6.947071 -3.081524 15.282893 -43.413292 4.885264 -12.246425 179.767654 -81.787933 179.947433 26.175705 -11.698838 -24.37182 -5.882109 9.861293 0.702589 -10.936877 -0.360574 7.156213 -0.0 8.774832 -0.0 -14.882002 17.758348 3.213068 -1.844032 2.498506 -2.507281 -10.163606 4.678947 4.621112 -20.976034 -1e-06 2e-06 -21.226301 2.451699 -3.594005 0.0 -5e-06 0.0 -1.36268 2.240799 -0.746324 -21.334925 0.584911 3.008327 -13.821221 -3e-06 3e-06 -23.887184 -0.249077 -0.839484 -53.04401 0.93925 -3.021111 -0.294025 1.679688 0.833258 -14.218215 0.093215 1.300582 -34.21207 -0.287562 0.967171 -20.033226 0.964538 1.212844 0.0 -2e-06 0.0 -3.440391 0.788234 0.501656 -15.928192 -3.16731 2.999711 -6.338829 -1e-06 1e-06 -18.123457 3.648186 -4.905674 -4e-06 -0.0 -1e-06 -3.874054 16.058641 16.126661 47.34642 9.722916 6.765038 -0.232212 52.965343 0.99511 3.497031 5.242084 -30.509804 2.243543 -5.25504 -3.180159 14.2829 -0.826594 6.952507 -4e-06 -12.690614 1e-06 16.230272 -17.318106 5.937651 1.665668 -1.955923 -2.878301 4.727801 -4.170591 4.993925 11.020535 4e-06 -3e-06 12.10906 -3.735717 -2.866787 -1e-06 0.0 -1e-06 1.291987 -1.92855 -1.49809 14.800139 0.56747 3.865608 14.242584 -1.341735 -6.660661 19.631985 0.14393 -0.648245 61.367523 -2.089813 1.625121 0.353029 -1.511152 -0.031939 20.222805 3.684315 2.316629 18.787287 7e-06 -2e-06 10.751636 -0.479867 1.397906 -2e-06 -0.0 -0.0 3.273809 0.305948 -0.580112 21.486832 11.830386 2.26613 8.162933 3e-06 -1e-06 18.399096 -3.798984 -4.940581 1e-06 -0.0 0.0 -16.20849 19.790504 -21.853359 1.291419 3.463235 71.35704 -8.691692 5.140814 19.856178 0.767924 -1.360797 -2.641893 1e-06 -0.0 2e-06 15.0818 -0.324816 -53.775288 -0.964328 -1.729464 43.118961 15.862952 5.252048 25.20005 -1.553986 1.467331 -0.129985 -1e-06 1e-06 -2e-06
0.0 0.0 0.0 0.0 -0.0 0.0 -66.514763 90.636024 -422.111755 -6.201843 40.759617 4.514233 0.583554 1.947504 10.574306 1.070143 2.97911 -0.808654 -2.076432 7.160182 23.846394 -7.069919 -1.546386 -2.172395 3.122621 12.174288 -3.541205 -0.538547 12.086009 -29.654387 7.7e-05 -2.2e-05 6e-06 0.066029 -0.124252 -0.104834 0.639098 -3.906152 -10.870913 -0.512705 3.672277 -10.864183 -7.141067 -3.648815 15.819305 -44.958393 2.189994 -9.247653 -177.259979 -82.188148 177.742767 25.605238 -11.351596 -25.866318 -5.88211 9.861292 0.70259 -10.936879 -0.360572 7.15621 -1e-06 8.774831 -2e-06 -15.471712 18.083267 2.978868 -1.844034 2.498506 -2.50728 -10.163608 4.678949 4.621112 -20.976038 1e-06 2e-06 -21.226303 2.451704 -3.594005 0.0 -5e-06 -0.0 -1.362684 2.240799 -0.746325 -21.334927 0.584913 3.008326 -13.821221 -1e-06 1e-06 -23.887184 -0.249077 -0.839485 -54.147598 0.632776 -3.095896 -0.294024 1.679687 0.833255 -14.218216 0.093217 1.300581 -34.212074 -0.28756 0.967168 -20.033226 0.96454 1.212843 0.0 1e-06 0.0 -3.440392 0.788234 0.501657 -15.9282 -3.16731 2.999711 -6.338831 0.0 2e-06 -18.123461 3.648188 -4.905674 -4e-06 -2e-06 -1e-06 -3.847069 16.302549 15.877706 45.978657 9.728963 6.668599 -0.579495 55.981197 0.856617 0.774476 2.834244 -32.67804 2.243543 -5.255037 -3.18016 14.282892 -0.826594 6.952502 -2e-06 -12.690608 -1e-06 16.242977 -17.684996 6.204261 1.665667 -1.955921 -2.878299 4.727799 -4.170588 4.993925 11.020529 3e-06 -3e-06 12.109056 -3.735716 -2.866787 0.0 -0.0 0.0 1.291986 -1.92855 -1.49809 14.800132 0.56747 3.865606 14.242577 -1.341737 -6.660661 19.631973 0.143928 -0.648247 61.36375 -2.291574 1.731937 0.353029 -1.511151 -0.03194 20.222797 3.684313 2.316629 18.787273 6e-06 -2e-06 10.751629 -0.479868 1.397905 -1e-06 -1e-06 1e-06 3.273808 0.305947 -0.580112 21.486818 11.83038 2.266133 8.16293 3e-06 -1e-06 18.399084 -3.798983 -4.940578 3e-06 -1e-06 -0.0 -9.905681 23.561563 -26.849064 1.16351 2.288188 86.363571 -6.001788 10.240684 12.88742 1.057698 -1.461246 -3.201973 -0.0 0.0 2e-06 10.347462 2.163197 -52.416912 -1.048964 -1.165878 53.445099 4.184706 4.781039 13.845971 -1.625397 1.472529 1.420198 0.0 -2e-06 0.0
